<svg width="235" height="40" viewBox="0 0 235 40" fill="none" xmlns="http://www.w3.org/2000/svg">
<path d="M113.279 5.30176C111.066 5.61373 105.373 7.14197 100.312 10.7598V29.084C102.994 30.9553 109.733 34.7602 115.232 35.0098L113.436 40C110.18 39.4541 101.984 37.0679 95.2344 31.8906V8.10938C98.4893 5.64028 106.655 0.577288 113.279 0.078125V5.30176ZM123.981 0C127.315 0.493827 135.512 2.82298 141.637 8.1875V31.7354C139.658 33.6847 133.293 38.0191 123.669 39.7656V34.542C126.221 34.1781 132.356 32.6084 136.48 29.2402L136.637 10.7598C134.241 9.01832 127.95 5.44277 121.951 5.06836L123.981 0ZM120.545 8.34277C122.785 8.34287 128.404 9.35675 132.966 13.4111V26.5889C132.159 27.5505 129.059 29.8319 123.747 31.2666V25.5752L127.966 23.7041V16.6865C127.471 16.2707 125.856 15.2672 123.356 14.5811L116.482 32.0469C114.347 31.9689 108.858 30.846 103.983 26.9785V13.0215C105.207 11.7739 108.795 9.09136 113.357 8.34277V14.1914C112.498 14.3734 110.436 15.0023 109.062 16.0625V23.7041C109.817 24.224 111.811 25.3572 113.748 25.7314L120.545 8.34277ZM12.8789 9.82422C14.4375 11.7347 15.6133 13.8641 16.1875 16.4023H12.0859C11.7578 15.3106 11.2656 14.3548 10.7461 13.4541H5.85156C5.27738 14.4366 4.75782 15.474 4.42969 16.6748L16.6797 21.4512C16.3789 24.9991 15.0116 27.783 13.0156 30.2393H3.30859C1.75008 28.3288 0.574217 26.2002 0 23.6621H4.10156C4.42967 24.7537 4.92193 25.7088 5.44141 26.6094H10.8828C11.457 25.6269 11.9766 24.5895 12.3047 23.3887L0.0546875 18.6133C0.355469 15.0652 1.72265 12.2806 3.71875 9.82422H12.8789ZM33.6494 13.4541H28.4541V30.2393H24.5166V13.4541H19.3486V9.82422H33.6494V13.4541ZM41.252 13.4541C41.6074 16.1287 42.4005 18.5311 44.0957 20.0322H44.4785C46.1738 18.5311 46.9668 16.1288 47.3223 13.4541L47.8145 9.82422H51.7793L51.2871 13.4541C50.7129 17.6026 49.291 20.8783 46.2559 23.6621V30.2393H42.3184V23.6621C39.2833 20.6054 37.8887 17.6025 37.3145 13.4541L36.8223 9.82422H40.7598L41.252 13.4541ZM60.3604 26.6094H68.2627V30.2393H56.4229V9.82422H60.3604V26.6094ZM85.4805 13.4541H76.7578V18.4727H85.293V22.1025H76.7578V26.6094H85.4805V30.2393H72.8203V9.82422H85.4805V13.4541ZM151.925 20.0322C151.925 22.7066 152.636 25.1083 153.675 26.6094H157.886C158.925 25.1083 159.636 22.7068 159.636 20.0322V9.82422H163.601V20.0322C163.601 24.2079 162.151 28.0013 159.964 30.2393H151.624C149.409 28.0012 147.987 24.2077 147.987 20.0322V9.82422H151.925V20.0322ZM179.975 22.7891V9.82422H183.912V30.2393H180.248L173.002 17.2754V30.2393H169.064V9.82422H172.729L179.975 22.7891ZM193.592 30.2393H189.654V9.82422H193.592V30.2393ZM211.817 9.82422C214.005 12.6081 215.454 15.8564 215.454 20.0322C215.454 24.2898 213.977 27.4555 211.735 30.2393H202.028C199.786 27.4555 198.31 24.2897 198.31 20.0322C198.31 15.8564 199.759 12.6081 201.946 9.82422H211.817ZM231.062 22.7891V9.82422H235V30.2393H231.336L224.09 17.2754V30.2393H220.152V9.82422H223.816L231.062 22.7891ZM204.106 13.4541C203.04 15.2554 202.302 17.3575 202.302 20.0322C202.302 22.7886 203.095 24.8082 204.161 26.6094H209.603C210.669 24.8081 211.462 22.7887 211.462 20.0322C211.462 17.3575 210.696 15.2554 209.657 13.4541H204.106Z" fill="black"/>
</svg>
